<svg width="638" height="155" fill="none" xmlns="http://www.w3.org/2000/svg"><g clip-path="url(#a)"><path d="M565.305 152.43h-.496l-197.045-14.278-242.306 11.147-.248-.125L4.305 75.401l1.86-.877L169.852 3.632h.124l188.488 11.022 219.117-6.262.372.376 55.927 66.758-.62.752-67.955 76.152Zm-197.417-16.408 196.549 14.279 66.714-74.775-54.438-64.88-218.249 6.263-188.24-11.022L8.893 75.777l117.061 71.393 241.934-11.148Z" fill="url(#b)"/><path d="m566.173 153.307-1.86-1.253-67.211-44.213L369.749 137.4l1.116.752-2.108-.376v.877l-1.116-.752-.372.251v-.251l-3.968.877 2.232-1.253-168.896-28.807-72.543 41.207.744-2.129 15.129-48.723L1.329 75.526 155.344 49.35l14.26-45.967.992.626 50.966 34.068 134.546-22.92-1.984-1.378 3.472.751v-.25l.62.375.868-.5v.626l2.852-.501-1.24.751 180.056 25.05h.124l.496.126L577.21 8.392l1.24 1.378-34.474 30.56h1.116l-1.24.752 88.912 33.693.496.125.992.376 1.364.25-.372.126.248.125-2.852.751-78.867 18.287 12.4 58.492Zm-66.715-45.842 63.987 42.084-11.409-54.358-52.578 12.274Zm-357.755-8.016-14.509 46.844 66.591-37.951-52.082-8.893Zm217.753-81.914 9.177 118.112 92.632-51.228-101.809-66.884Zm-160.338 89.93 164.679 28.056-98.337-65.882-66.342 37.826Zm68.078-38.828 99.577 66.634-9.177-118.112-90.4 51.478Zm195.805 16.91-89.036 49.223 121.153-28.182-32.117-21.042ZM142.199 97.695l54.066 9.268 67.459-38.452-42.658-28.557-64.358 10.897-14.509 46.844Zm322.538-13.152 32.737 21.418 54.315-12.65-7.565-36.198-21.329-4.634-58.158 32.064ZM11.994 75.526l128.469 21.92 14.261-46.218-142.73 24.298Zm533.966-17.91 7.441 35.445 74.899-17.41-82.34-18.036ZM362.928 17.66l100.073 65.757 57.042-31.438L362.928 17.66Zm182.66 37.951 75.147 16.408-77.999-29.559 2.852 13.151ZM223.671 39.58l41.913 28.056 88.044-50.1L223.671 39.58Zm301.456 11.649 18.601 4.008L541 42.46l-15.873 8.768ZM381.281 19.79 522.399 50.6l16.369-9.018-10.54-1.503-146.947-20.29ZM170.596 6.137l-13.268 42.836 61.63-10.521-48.362-32.315Z" fill="url(#c)"/><path d="M358.464 18.913c1.713 0 3.101-1.402 3.101-3.131 0-1.73-1.388-3.132-3.101-3.132-1.712 0-3.1 1.402-3.1 3.132 0 1.729 1.388 3.13 3.1 3.13ZM125.706 152.931c2.603 0 4.713-2.131 4.713-4.759 0-2.629-2.11-4.76-4.713-4.76-2.602 0-4.712 2.131-4.712 4.76 0 2.628 2.11 4.759 4.712 4.759ZM564.809 154.559c1.712 0 3.1-1.402 3.1-3.131 0-1.729-1.388-3.131-3.1-3.131-1.712 0-3.1 1.402-3.1 3.131 0 1.729 1.388 3.131 3.1 3.131ZM632.516 80.286c2.602 0 4.712-2.131 4.712-4.76s-2.11-4.76-4.712-4.76c-2.603 0-4.712 2.131-4.712 4.76s2.109 4.76 4.712 4.76ZM577.209 15.155c3.082 0 5.58-2.523 5.58-5.636s-2.498-5.636-5.58-5.636-5.58 2.523-5.58 5.636 2.498 5.636 5.58 5.636ZM367.889 143.537c3.493 0 6.324-2.86 6.324-6.388 0-3.527-2.831-6.387-6.324-6.387s-6.325 2.86-6.325 6.387c0 3.528 2.832 6.388 6.325 6.388ZM6.661 81.914c3.493 0 6.325-2.86 6.325-6.388s-2.832-6.388-6.325-6.388c-3.493 0-6.324 2.86-6.324 6.388s2.831 6.388 6.324 6.388ZM170.1 9.52c2.602 0 4.712-2.132 4.712-4.76 0-2.63-2.11-4.76-4.712-4.76-2.603 0-4.712 2.13-4.712 4.76 0 2.628 2.109 4.76 4.712 4.76ZM85.9 40.957c4.341 2.004 7.565 4.76 9.921 8.392 2.356 3.632 3.472 7.89 3.472 12.775 0 4.885-1.116 9.144-3.472 12.776-2.356 3.632-5.58 6.388-9.92 8.392-4.34 1.878-9.3 2.88-15.129 2.88H57.38v18.287H42.25V38.076h28.397c5.828 0 10.913.877 15.253 2.88ZM80.32 70.64c2.357-2.004 3.597-4.76 3.597-8.517 0-3.757-1.24-6.638-3.596-8.642-2.356-2.004-5.829-3.006-10.417-3.006h-12.4v23.046h12.4c4.464.125 7.937-.877 10.417-2.88Zm54.067 19.164h-9.052v14.654h-14.881v-54.61h24.553c7.44 0 13.392 1.754 17.733 5.387 4.34 3.632 6.572 8.517 6.572 14.78 0 4.007-.992 7.389-2.852 10.395-1.86 2.88-4.588 5.26-8.061 6.889l12.029 17.159h-15.997l-10.044-14.654Zm7.44-26.052c-1.736-1.503-4.34-2.13-7.812-2.13h-8.68v16.91h8.68c3.472 0 6.076-.752 7.812-2.13 1.736-1.503 2.604-3.507 2.604-6.263 0-2.88-.868-5.01-2.604-6.387Zm39.93 38.076c-4.464-2.255-8.184-5.762-10.789-10.145-2.604-4.26-3.968-9.144-3.968-14.53 0-5.385 1.364-10.27 3.968-14.529 2.605-4.383 6.325-7.89 10.789-10.145 4.588-2.38 9.796-3.632 15.501-3.632 5.704 0 10.912 1.252 15.5 3.632 4.464 2.255 8.185 5.887 10.789 10.145 2.604 4.384 3.968 9.144 3.968 14.53 0 5.385-1.364 10.27-3.968 14.528a28.16 28.16 0 0 1-10.789 10.146c-4.588 2.38-9.796 3.632-15.5 3.632-5.705 0-10.913-1.252-15.501-3.632Zm23.437-10.646c2.356-1.378 4.216-3.382 5.456-5.762 1.364-2.505 1.984-5.386 1.984-8.267 0-3.13-.62-5.886-1.984-8.266-1.24-2.38-3.224-4.384-5.456-5.762a15.8 15.8 0 0 0-15.625 0c-2.356 1.378-4.216 3.382-5.58 5.762-1.364 2.38-1.984 5.26-1.984 8.266 0 2.881.62 5.637 1.984 8.267 1.24 2.38 3.224 4.384 5.58 5.761 4.712 2.756 10.665 2.756 15.625 0Zm32.985-41.333H263.6c6.077 0 11.533 1.127 16.121 3.256 4.588 2.13 8.184 5.386 10.789 9.52 2.48 4.133 3.844 8.892 3.844 14.528 0 5.511-1.24 10.27-3.844 14.404-2.481 4.133-6.077 7.265-10.789 9.519-4.588 2.255-10.044 3.382-16.121 3.382h-25.421v-54.61Zm24.925 42.836c4.961 0 8.929-1.378 11.781-4.009 2.852-2.63 4.34-6.513 4.34-11.397 0-4.885-1.488-8.768-4.34-11.523-2.852-2.756-6.82-4.134-11.781-4.134h-10.168v31.063h10.168Zm47.99 6.262c-4.464-4.384-6.696-10.396-6.696-18.036V49.85h14.881v30.56c0 4.26.868 7.39 2.728 9.52 1.86 2.13 4.588 3.256 8.184 3.256 3.472 0 6.2-1.127 7.937-3.256 1.86-2.13 2.728-5.386 2.728-9.52V49.85h14.632v31.062c0 7.64-2.232 13.652-6.696 18.036-4.464 4.384-10.788 6.513-18.849 6.513-8.06 0-14.384-2.129-18.849-6.513Zm68.947 2.881c-4.464-2.255-8.184-5.762-10.788-10.145-2.604-4.26-3.968-9.144-3.968-14.53 0-5.385 1.364-10.27 3.968-14.529a28.156 28.156 0 0 1 10.788-10.145c4.589-2.38 9.673-3.632 15.377-3.632 5.208 0 9.672.751 13.517 2.38 3.844 1.628 7.068 4.133 9.796 7.64l-9.548 8.767c-3.597-4.383-7.937-6.513-13.145-6.513-4.588 0-8.308 1.503-11.284 4.51-2.977 3.005-4.465 6.888-4.465 11.648 0 3.13.62 6.012 1.984 8.391a13.519 13.519 0 0 0 5.581 5.637c2.48 1.377 5.332 2.004 8.184 2.004 5.208 0 9.548-2.13 13.145-6.513l9.548 8.767c-2.604 3.382-5.952 5.887-9.796 7.515-3.845 1.629-8.309 2.38-13.517 2.38-5.58 0-10.788-1.252-15.377-3.632Zm58.159-40.33h-16.989v-11.65h48.858V61.5H453.08v42.835H438.2V61.498Zm49.974-17.41V70.14h33.977v6.012h-33.977v28.182h-6.944V37.951h45.014v6.012l-38.07.125Zm50.842 6.763h6.696v53.607h-6.696V50.852Zm35.714 5.636h-18.725v-5.636h44.146v5.636h-18.725v47.971h-6.696V56.488ZM538.148 39.83c-1.116 2.38 0 5.26 2.356 6.262 2.356 1.127 5.208 0 6.2-2.38 1.116-2.38 0-5.26-2.356-6.262-2.356-1.127-5.208-.125-6.2 2.38Z" fill="#1E959B"/></g><defs><linearGradient id="b" x1="4.306" y1="78.082" x2="633.871" y2="78.082" gradientUnits="userSpaceOnUse"><stop stop-color="#AFDBDE"/><stop offset="1" stop-color="#C7E5E7"/></linearGradient><linearGradient id="c" x1="1.269" y1="78.345" x2="635.559" y2="78.345" gradientUnits="userSpaceOnUse"><stop stop-color="#AFDBDE"/><stop offset="1" stop-color="#C7E5E7"/></linearGradient><clipPath id="a"><path fill="#fff" transform="translate(.337)" d="M0 0h636.891v154.559H0z"/></clipPath></defs></svg>